<svg width="1600" height="900" viewBox="0 0 1600 900" xmlns="http://www.w3.org/2000/svg" role="img" aria-label="dietmcp visual overview">
<defs>
  <linearGradient id="bg" x1="0" y1="0" x2="1600" y2="900" gradientUnits="userSpaceOnUse">
    <stop stop-color="#04121f"/><stop offset="1" stop-color="#0f172a"/>
  </linearGradient>
  <linearGradient id="acc" x1="120" y1="210" x2="1480" y2="210" gradientUnits="userSpaceOnUse">
    <stop stop-color="#38bdf8"/><stop offset="1" stop-color="#34d399"/>
  </linearGradient>
  <clipPath id="c1"><rect x="145" y="360" width="350" height="360" rx="10"/></clipPath>
  <clipPath id="c2"><rect x="625" y="360" width="350" height="360" rx="10"/></clipPath>
  <clipPath id="c3"><rect x="1105" y="360" width="350" height="360" rx="10"/></clipPath>
</defs>
<rect width="1600" height="900" fill="url(#bg)"/>
<rect x="80" y="80" width="1440" height="740" rx="28" fill="#0b1220" stroke="#334155"/>
<text x="120" y="145" fill="#f8fafc" font-size="60" font-family="Inter, Segoe UI, Arial" font-weight="700">dietmcp</text>
<text x="120" y="192" fill="#94a3b8" font-size="28" font-family="Inter, Segoe UI, Arial">Visual Overview</text>
<line x1="120" y1="215" x2="1480" y2="215" stroke="url(#acc)" stroke-width="3"/>

<rect x="120" y="270" width="420" height="500" rx="18" fill="#111827" stroke="#263244"/>
<rect x="600" y="270" width="420" height="500" rx="18" fill="#111827" stroke="#263244"/>
<rect x="1080" y="270" width="420" height="500" rx="18" fill="#111827" stroke="#263244"/>

<text x="160" y="330" fill="#e2e8f0" font-size="28" font-family="Inter, Segoe UI, Arial" font-weight="600">Architecture</text>
<text x="640" y="330" fill="#e2e8f0" font-size="28" font-family="Inter, Segoe UI, Arial" font-weight="600">Execution</text>
<text x="1120" y="330" fill="#e2e8f0" font-size="28" font-family="Inter, Segoe UI, Arial" font-weight="600">Implementation Notes</text>

<g clip-path="url(#c1)"><text x="160" y="395" fill="#93c5fd" font-size="20" font-family="Inter, Segoe UI, Arial"><tspan x="160" dy="0">• Python command bridge runtime</tspan><tspan x="160" dy="34">• MCP/OpenAPI/GraphQL normalization</tspan><tspan x="160" dy="34">• Token-efficient tool dispatch</tspan></text></g>
<g clip-path="url(#c2)"><text x="640" y="395" fill="#a7f3d0" font-size="20" font-family="Inter, Segoe UI, Arial"><tspan x="640" dy="0">• Discover tool surfaces</tspan><tspan x="640" dy="34">• Normalize into CLI commands</tspan><tspan x="640" dy="34">• Execute with compact output</tspan><tspan x="640" dy="34">• Cache + tune invocation paths</tspan></text></g>
<g clip-path="url(#c3)"><text x="1120" y="395" fill="#fde68a" font-size="20" font-family="Inter, Segoe UI, Arial"><tspan x="1120" dy="0">• Entrypoint: src/dietmcp/main.py</tspan><tspan x="1120" dy="34">• Subcommands under src/dietmcp/cli/</tspan><tspan x="1120" dy="34">• Integration tests under tests/</tspan></text></g>
</svg>